<mxfile host="65bd71144e">
    <diagram id="3yG296p0sN2wpsQ9p2Xl" name="Basket">
        <mxGraphModel dx="918" dy="447" grid="1" gridSize="10" guides="1" tooltips="1" connect="1" arrows="1" fold="1" page="1" pageScale="1" pageWidth="850" pageHeight="1100" math="0" shadow="0">
            <root>
                <mxCell id="0"/>
                <mxCell id="1" parent="0"/>
                <mxCell id="3" value="BasketList&lt;br&gt;Список всего, что есть в корзине" style="text;strokeColor=none;align=center;fillColor=none;html=1;verticalAlign=middle;whiteSpace=wrap;rounded=0;" vertex="1" parent="1">
                    <mxGeometry x="190" y="190" width="140" height="50" as="geometry"/>
                </mxCell>
                <mxCell id="4" value="BasketItem&lt;br&gt;Отдельный элемент коризины" style="text;strokeColor=none;align=center;fillColor=none;html=1;verticalAlign=middle;whiteSpace=wrap;rounded=0;" vertex="1" parent="1">
                    <mxGeometry x="190" y="270" width="140" height="50" as="geometry"/>
                </mxCell>
            </root>
        </mxGraphModel>
    </diagram>
</mxfile>